HIERARCHY
ROOT SimulationBone
{
	OFFSET 0.000000 0.000000 0.000000
	CHANNELS 6 Xposition Yposition Zposition Zrotation Yrotation Xrotation 
	JOINT Hips
	{
		OFFSET 0.000000 0.000000 0.000000
		CHANNELS 6 Xposition Yposition Zposition Zrotation Yrotation Xrotation 
		JOINT LeftUpLeg
		{
			OFFSET 0.103456 1.857823 10.548498
			CHANNELS 3 Zrotation Yrotation Xrotation
			JOINT LeftLeg
			{
				OFFSET 43.500000 -0.000019 -0.000002
				CHANNELS 3 Zrotation Yrotation Xrotation
				JOINT LeftFoot
				{
					OFFSET 42.372204 0.000027 -0.000005
					CHANNELS 3 Zrotation Yrotation Xrotation
					JOINT LeftToe
					{
						OFFSET 17.299999 -0.000001 0.000000
						CHANNELS 3 Zrotation Yrotation Xrotation
						End Site
						{
							OFFSET 0.000000 0.000000 0.000000
						}
					}
				}
			}
		}
		JOINT RightUpLeg
		{
			OFFSET 0.103456 1.857824 -10.548502
			CHANNELS 3 Zrotation Yrotation Xrotation
			JOINT RightLeg
			{
				OFFSET 43.500038 -0.000015 0.000017
				CHANNELS 3 Zrotation Yrotation Xrotation
				JOINT RightFoot
				{
					OFFSET 42.372261 -0.000015 0.000015
					CHANNELS 3 Zrotation Yrotation Xrotation
					JOINT RightToe
					{
						OFFSET 17.299984 -0.000007 -0.000002
						CHANNELS 3 Zrotation Yrotation Xrotation
						End Site
						{
							OFFSET 0.000000 0.000000 0.000000
						}
					}
				}
			}
		}
		JOINT Spine
		{
			OFFSET 6.901968 -2.603745 -0.000005
			CHANNELS 3 Zrotation Yrotation Xrotation
			JOINT Spine1
			{
				OFFSET 12.588100 0.000014 0.000013
				CHANNELS 3 Zrotation Yrotation Xrotation
				JOINT Spine2
				{
					OFFSET 12.343204 0.000008 -0.000010
					CHANNELS 3 Zrotation Yrotation Xrotation
					JOINT Neck
					{
						OFFSET 25.832903 0.000002 0.000010
						CHANNELS 3 Zrotation Yrotation Xrotation
						JOINT Head
						{
							OFFSET 11.766598 0.000015 -0.000000
							CHANNELS 3 Zrotation Yrotation Xrotation
							End Site
							{
								OFFSET 0.000000 0.000000 0.000000
							}
						}
					}
					JOINT LeftShoulder
					{
						OFFSET 19.745903 -1.480366 6.000109
						CHANNELS 3 Zrotation Yrotation Xrotation
						JOINT LeftArm
						{
							OFFSET 11.284134 0.000001 -0.000017
							CHANNELS 3 Zrotation Yrotation Xrotation
							JOINT LeftForeArm
							{
								OFFSET 33.000042 0.000010 0.000015
								CHANNELS 3 Zrotation Yrotation Xrotation
								JOINT LeftHand
								{
									OFFSET 25.200022 0.000012 0.000000
									CHANNELS 3 Zrotation Yrotation Xrotation
									End Site
									{
										OFFSET 0.000000 0.000000 0.000000
									}
								}
							}
						}
					}
					JOINT RightShoulder
					{
						OFFSET 19.746094 -1.480373 -6.000069
						CHANNELS 3 Zrotation Yrotation Xrotation
						JOINT RightArm
						{
							OFFSET 11.284146 -0.000006 -0.000018
							CHANNELS 3 Zrotation Yrotation Xrotation
							JOINT RightForeArm
							{
								OFFSET 33.000103 0.000006 0.000016
								CHANNELS 3 Zrotation Yrotation Xrotation
								JOINT RightHand
								{
									OFFSET 25.199755 0.000126 0.000423
									CHANNELS 3 Zrotation Yrotation Xrotation
									End Site
									{
										OFFSET 0.000000 0.000000 0.000000
									}
								}
							}
						}
					}
				}
			}
		}
	}
}
MOTION
Frames: 11
Frame Time: 0.033333
-55.172357 0.000000 237.704384 0.000000 -31.004760 0.000000 1.299436 83.214989 7.919815 97.290637 11.199921 -178.048393 139.289264 -16.763898 167.673235 -44.099379 1.568908 12.239961 65.629901 -14.875209 -14.982522 21.454551 0.003096 0.000003 152.844716 -5.433308 -167.344129 -47.089185 -4.324287 3.034120 81.222964 0.947253 12.598512 21.454557 -0.003102 -0.000018 7.542786 -1.396893 1.268064 5.043531 -2.847367 2.475211 4.725320 -2.832230 2.492361 32.246385 -11.275999 -12.866283 -11.055934 5.168630 -14.624156 -64.756723 -84.903684 -117.481781 48.447348 34.078730 65.274772 -26.619687 -15.778944 1.218164 14.841878 11.349049 10.826789 -53.677436 85.768393 128.443388 -16.899739 -61.771090 -1.304470 -76.355894 3.285661 -1.980688 12.823294 -6.534176 50.797029 
-56.826796 0.000000 236.572126 0.000000 -30.843852 0.000000 1.941592 83.477692 8.381650 97.803051 11.899785 -176.467336 139.507830 -17.820003 168.806541 -48.410813 2.128236 10.500612 72.936756 -14.062388 -19.939518 21.454553 0.003090 -0.000001 153.494800 -6.180491 -168.124765 -44.882331 -3.551331 4.101696 79.505273 0.432210 12.898995 21.454557 -0.003116 -0.000017 7.522680 -1.400280 1.079612 5.007962 -2.845657 2.098669 4.689683 -2.832795 2.115822 33.299290 -10.829518 -12.861520 -11.633594 5.145083 -14.609370 -61.940486 -84.878870 -120.299452 52.872231 34.682481 69.132019 -27.077161 -15.974523 1.238462 15.086602 13.060228 11.519081 -60.983720 84.992852 121.223263 -12.781675 -62.815952 -4.805763 -81.604887 2.084684 -2.122251 12.138449 -6.781029 50.220069 
-58.369147 0.000000 235.381780 0.000000 -30.869604 0.000000 2.523778 83.734367 8.733400 98.128401 12.061359 -174.329959 139.525793 -18.284104 172.060894 -54.894408 2.409461 11.837180 76.376780 -12.326403 -13.135728 21.454550 0.003083 -0.000006 153.834821 -5.878098 -167.861188 -42.960425 -3.104132 4.706205 77.852941 0.197171 12.985370 21.454562 -0.003099 -0.000016 7.525140 -1.485624 0.820636 5.018480 -3.005221 1.577056 4.700031 -2.995504 1.595183 33.728690 -10.002711 -12.741989 -12.057478 5.241936 -14.588466 -59.925129 -84.865305 -122.314454 57.013618 35.371070 72.688970 -28.529787 -16.642077 1.306987 14.917058 12.790634 11.651658 -67.112073 84.009660 115.196208 -5.416074 -63.835863 -11.029926 -87.701275 0.739208 -2.296284 11.179433 -7.219939 49.301958 
-59.814087 0.000000 234.135525 0.000000 -31.080094 0.000000 2.859382 84.189377 8.901028 97.916810 11.775725 -171.885432 140.573503 -17.525412 176.866792 -61.369735 2.566907 9.255327 79.856659 -8.093846 -5.813903 21.454545 0.003087 -0.000002 153.933435 -4.958407 -166.924223 -40.365947 -3.192777 5.190347 75.673626 0.208068 13.379489 21.454560 -0.003111 -0.000017 7.505364 -1.676816 0.556645 4.984697 -3.375917 1.041483 4.666056 -3.369429 1.061875 33.608967 -8.484568 -12.568361 -12.416872 5.378210 -14.623739 -59.287565 -84.996097 -122.938310 60.237644 36.342627 75.678756 -30.493940 -17.543399 1.402275 14.183573 11.218891 11.110062 -73.461922 82.723788 108.970477 5.302644 -64.032060 -21.033142 -94.163570 0.519043 -2.569502 9.885570 -7.891671 48.249617 
-61.180687 0.000000 232.848049 0.000000 -31.481929 0.000000 2.881774 84.926651 8.771053 97.175320 11.324351 -169.922473 144.020358 -16.142807 -177.772216 -65.058733 2.290257 3.364161 83.130465 -3.387380 -4.313407 21.454551 0.003091 0.000000 154.126770 -4.089493 -167.007455 -36.280800 -3.403600 5.907651 72.479078 0.419361 14.502759 21.454558 -0.003106 -0.000018 7.454557 -1.901669 0.404437 4.886789 -3.818619 0.729180 4.567947 -3.814008 0.752259 33.282689 -6.570639 -12.531421 -13.220629 5.552604 -14.893216 -63.810250 -85.193148 -118.398829 62.302178 38.120338 77.956159 -32.337292 -18.393563 1.494848 13.228476 8.783962 10.215831 -79.447511 81.399169 103.101740 16.135775 -62.516940 -30.464099 -99.802465 0.399367 -2.813779 8.379314 -9.027072 47.259879 
-62.468625 0.000000 231.484420 0.000000 -32.064381 0.000000 2.662918 85.478050 8.199067 96.175639 11.422155 -168.959513 149.054890 -15.327805 -172.136340 -63.314508 2.082011 7.525817 87.342642 -5.703933 -2.312646 21.454550 0.003088 -0.000001 153.992912 -3.819597 -168.289017 -31.803738 -3.687450 6.956592 68.629802 0.806079 16.345037 21.454557 -0.003108 -0.000018 7.372401 -1.947436 0.414126 4.721888 -3.910039 0.749485 4.403014 -3.905308 0.773121 32.820674 -5.102212 -12.829962 -14.620715 5.777003 -15.542444 -76.837702 -85.109799 -105.370940 63.287843 40.932904 79.846721 -33.354177 -18.865177 1.547289 12.357152 5.860253 9.014797 -84.252098 80.495227 98.364641 23.208484 -59.649989 -35.707375 -103.496695 0.345999 -2.974690 6.996712 -10.759859 46.867614 
-63.720038 0.000000 230.032737 0.000000 -32.827254 0.000000 2.251052 85.811661 7.398775 94.776091 11.027607 -168.456138 153.362786 -13.666905 -169.379826 -54.741395 1.947623 10.303880 96.392472 -7.037249 -0.141840 21.454550 0.003093 -0.000001 153.481973 -2.575808 -170.136269 -27.770149 -3.967407 6.565227 65.940197 2.310566 18.480054 21.454560 -0.003110 -0.000020 7.297626 -1.986600 0.413018 4.572113 -3.987861 0.748308 4.253213 -3.983132 0.772422 31.658791 -4.647181 -13.482939 -16.026383 6.061720 -16.517224 -92.742057 -84.481148 -89.478955 63.028064 45.022695 81.669699 -33.131687 -18.774561 1.536551 11.697998 3.329787 7.402449 -87.607544 80.194562 95.018416 26.905691 -57.271273 -36.761239 -104.867794 0.278861 -3.030791 6.090594 -12.794278 46.983577 
-64.958887 0.000000 228.470603 0.000000 -33.776349 0.000000 1.642752 86.064613 6.871883 92.963455 8.922351 -167.490775 152.423717 -10.549500 -171.004140 -51.083897 0.449125 8.156035 95.504787 -5.452728 0.757190 21.454551 0.003096 0.000001 152.970105 1.130711 -172.650926 -24.490007 -4.433960 0.485348 67.330168 7.117084 19.955957 21.454560 -0.003103 -0.000018 7.347297 -2.278236 0.246859 4.677411 -4.564536 0.402447 4.358223 -4.561885 0.430070 29.315626 -4.914916 -14.259641 -16.995763 6.397367 -17.573040 -105.396335 -83.905097 -76.809890 61.392274 50.288647 83.045927 -32.250241 -18.389437 1.492731 11.379077 2.397074 6.353520 -90.058032 80.338304 92.537971 29.330885 -56.984138 -35.096285 -104.025509 0.230682 -2.990128 5.986827 -12.971579 46.230661 
-66.231042 0.000000 226.773521 0.000000 -34.931111 0.000000 0.905502 85.913177 6.551873 91.603364 7.097666 -166.206654 149.085790 -7.919600 -175.534291 -51.573976 1.710827 8.910555 91.256081 -5.848229 1.816145 21.454553 0.003084 -0.000000 150.687114 4.740707 -175.553880 -27.880989 -3.652661 -6.025551 73.639343 11.716629 23.246691 21.454558 -0.003107 -0.000018 7.555051 -2.416627 0.077113 5.100754 -4.834311 0.048316 4.781414 -4.833794 0.077587 26.328436 -5.257615 -14.866545 -17.832922 6.695900 -18.440998 -118.237186 -83.771437 -63.909342 58.827600 55.524408 83.516876 -32.268467 -18.486158 1.499321 11.571275 3.524159 7.486370 -92.995430 80.823240 89.534976 30.578839 -58.703126 -31.175169 -100.991901 0.234656 -2.855421 6.250450 -7.935343 42.973938 
-67.562048 0.000000 224.949219 0.000000 -36.299814 0.000000 0.205089 85.623260 6.210921 91.352548 7.214238 -165.838373 146.951097 -8.071508 -179.618266 -51.509274 2.701108 10.341015 89.516268 -6.611869 3.177068 21.454553 0.003094 -0.000000 147.919167 4.838395 -176.341455 -38.046514 -2.294227 -6.171593 78.673281 10.331452 22.015247 21.454555 -0.003118 -0.000013 7.780718 -2.101865 0.128475 5.549451 -4.207473 0.156614 5.230410 -4.206310 0.182072 23.832625 -5.357721 -15.163134 -18.787902 6.879527 -18.955255 -126.912401 -83.804003 -55.171468 56.718543 59.822861 84.434327 -34.546523 -19.604979 1.621927 12.163888 5.447295 10.698671 -97.480822 81.712954 84.936565 28.774709 -61.514063 -24.220816 -95.411903 0.332320 -2.612417 4.064313 2.089722 36.718680 
-68.959139 0.000000 222.993938 0.000000 -37.859570 0.000000 -0.209056 85.502060 5.950676 91.326874 6.823275 -166.183609 145.847475 -8.180099 177.175394 -50.840875 2.505354 10.690230 87.176191 -6.557969 4.469965 21.454555 0.003098 0.000003 146.332076 4.414596 -173.374161 -49.681546 -2.582590 -0.921307 80.978306 5.648117 20.264666 21.454557 -0.003113 -0.000015 7.886541 -1.902548 0.140531 5.760291 -3.809718 0.186720 5.441432 -3.808387 0.209764 22.341414 -5.154322 -15.165238 -19.489776 7.064536 -19.117507 -132.103058 -83.556607 -49.953825 54.594839 62.214438 85.055041 -39.214240 -21.351359 1.851393 12.494229 5.965089 14.360329 -105.463339 82.741444 76.817594 23.252985 -64.129520 -14.189611 -88.287777 0.763690 -2.324057 0.870408 11.240774 29.216319 
